<?xml version="1.0" encoding="utf-8"?>
<!-- Generator: Adobe Illustrator 21.1.0, SVG Export Plug-In . SVG Version: 6.00 Build 0)  -->
<svg version="1.1" id="Layer_2" xmlns="http://www.w3.org/2000/svg" xmlns:xlink="http://www.w3.org/1999/xlink" x="0px" y="0px"
	 viewBox="0 0 432 432.4" enable-background="new 0 0 432 432.4" xml:space="preserve">
<path fill="#FFFFFF" d="M206.9,259.1c22.4,27.5,40,58.6,55,90.7c1.8,4.9,9.4,4.5,11.3-0.1c0.3-2.7,0-5.4,0-8.1
	c-0.6-17.2,5.2-34.8,17.4-47.2c13-13.6,31.9-20.9,50.6-21.1c16.2-0.1,32.4-1.6,48.6-2.1c3.6,0,6.8-1.6,9.3-3.9
	c1-3.6,1.8-7.2,2.6-10.8c-22.3-11.8-43.5-25.4-64.4-39.4c-17-10.8-34.1-22.7-54.1-27.1c-6.1-0.8-13.5-2.4-18.4,2.5
	c6.3,6.5,16.5,9.8,18.8,19.5c2.1,4.7-0.4,10.3-5.1,12.1c-6.8,2.8-14.2-0.6-19.5-5c-37.3-29.7-79.5-53.2-124.9-68
	c-31-10.3-63.3-16.4-95.8-19.8c-4.7,9.5-8.5,19.2-11.5,29.1c31.7,4.8,63,13,91.8,27.3C153.1,204.4,182.9,229.5,206.9,259.1z"/>
<path fill="#FFFFFF" d="M215.1,3.7c-86.6,0-161,51.7-194.3,125.9c5.9,0.4,11.8,1,17.6,1.6c1.9-3.8,3.8-7.6,6-11.3
	C97.9,27.3,216.4-4.4,309,49.1c74.4,42.9,109.4,127.8,92.7,207.5c1.1,0.6,2.1,1.2,3.2,1.8c-1.2,3.3-3.2,6.6-5.8,9.1
	c-4.3,15.8-10.7,31.4-19.3,46.3C326.4,406.3,208,438,115.3,384.5c-79.6-46-114.2-139.9-88.4-224.2c-5.5-0.8-11-1.6-16.5-2.2
	c-5.3,18.6-8.2,38.2-8.2,58.5c0,117.6,95.3,212.9,212.9,212.9S428,334.1,428,216.6S332.7,3.7,215.1,3.7z"/>
</svg>
