<svg width="203" height="45" viewBox="0 0 203 45" fill="none" xmlns="http://www.w3.org/2000/svg">
<path d="M7.26453 11.8777H14.7173L11.7972 22.6321L22.9382 11.8777H32.3902L19.7078 23.6343L25.7006 38.7687H17.673L13.7914 28.3959L9.1061 32.659L7.49345 38.7687H0L7.26453 11.8777Z" fill="white"/>
<path d="M27.6998 33.5441C27.6998 31.5449 28.3917 29.8966 29.6228 28.6655C31.2761 27.0885 33.7333 26.2084 36.8466 26.2084C38.7289 26.2084 40.4585 26.5136 42.1119 27.0172L42.1882 26.7476C42.3052 26.3661 42.3815 25.9388 42.3815 25.4809C42.3815 24.0972 41.42 23.2527 38.8459 23.2527C36.8873 23.2527 34.7354 23.675 33.2347 24.2498L32.1969 18.9845C34.3844 18.2164 37.3045 17.7178 40.3415 17.7178C46.6039 17.7178 49.6003 20.1393 49.6003 24.2854C49.6003 25.2469 49.4476 26.244 49.178 27.3225L46.1053 38.7687H38.9171L39.5327 36.4998C37.7267 38.1888 35.9615 39.1909 33.4992 39.1909C30.1213 39.1909 27.6998 36.9627 27.6998 33.5441ZM41.1453 30.9344L41.3386 30.2425C40.5705 29.9729 39.6497 29.744 38.6119 29.744C37.3045 29.744 36.3074 30.0899 35.6155 30.7818C35.0763 31.3159 34.8067 31.9722 34.8067 32.776C34.8067 33.9664 35.6511 34.6989 36.8822 34.6989C38.7645 34.6989 40.5705 33.0863 41.1453 30.9344Z" fill="white"/>
<path d="M55.3591 17.9875H62.6592L62.008 20.3683C63.4274 18.8676 65.4673 17.5245 67.9245 17.5245C71.7297 17.5245 73.9579 19.9054 73.9579 23.7462C73.9579 24.8603 73.729 26.127 73.383 27.47L70.346 38.7636H63.0865L66.0066 27.8923C66.1592 27.3174 66.2355 26.6256 66.2355 26.1626C66.2355 24.7789 65.4266 23.9751 63.8903 23.9751C61.891 23.9751 60.665 25.3944 60.0495 27.7396L57.0887 38.7636H49.7886L55.3591 17.9875Z" fill="white"/>
<path d="M73.032 42.1517L76.3336 37.5783C78.6381 39.079 81.3648 39.7658 83.6693 39.7658C85.6279 39.7658 86.9353 39.2672 88.0087 38.1887C88.7362 37.4613 89.3161 36.3472 89.6977 34.8464L89.8503 34.3479C87.968 36.0369 86.1265 36.922 83.5116 36.922C79.8234 36.922 76.1352 34.3886 76.1352 29.7389C76.1352 26.2033 77.4782 22.9373 79.7827 20.6328C81.7413 18.6742 84.2391 17.5601 87.0065 17.5601C90.2318 17.5601 92.1141 19.0965 93.3045 20.9431L94.1134 17.9824H101.373L96.9571 34.5005C95.9193 38.2294 94.9578 40.2643 93.2689 41.9533C91.1577 44.0645 88.314 44.9903 83.9695 44.9903C79.9455 44.9954 75.7994 43.8813 73.032 42.1517ZM90.1657 30.2425C91.2035 29.2047 91.702 28.0143 91.702 26.6306C91.702 24.672 90.359 23.329 88.2071 23.329C86.8997 23.329 85.8263 23.7919 84.9411 24.7127C83.9033 25.7098 83.3641 26.9816 83.3641 28.4773C83.3641 30.4358 84.7071 31.6669 86.7471 31.6669C88.0901 31.6619 89.2805 31.1226 90.1657 30.2425Z" fill="white"/>
<path d="M101.383 33.0049C101.383 31.8908 101.652 30.5478 101.998 29.281L104.995 17.9874H112.295L109.375 28.8588C109.222 29.4337 109.105 30.0899 109.105 30.5478C109.105 31.9315 109.914 32.7353 111.45 32.7353C113.485 32.7353 114.676 31.3922 115.332 28.9707L118.293 17.9824H125.552L119.982 38.7687H112.722L113.338 36.3879C111.954 37.8886 109.878 39.2316 107.421 39.2316C103.611 39.2316 101.383 36.8508 101.383 33.0049Z" fill="white"/>
<path d="M123.36 35.6197L126.972 31.3923C129.006 33.1982 131.733 34.1953 133.885 34.1953C135.116 34.1953 135.727 33.6968 135.727 32.9286C135.727 32.2011 134.918 31.7382 132.924 30.97C129.658 29.627 127.048 28.2026 127.048 24.901C127.048 20.7498 130.39 17.5245 136.113 17.5245C139.918 17.5245 143.22 18.9083 145.102 20.4446L141.607 24.784C139.801 23.441 137.614 22.5965 135.732 22.5965C134.541 22.5965 133.926 22.978 133.926 23.7869C133.926 24.5194 134.653 24.8654 136.805 25.7455C139.801 26.9766 142.605 28.3196 142.605 31.8145C142.605 35.808 139.608 39.2673 133.615 39.2673C129.617 39.2673 125.852 37.9242 123.36 35.6197Z" fill="white"/>
<path d="M173.377 23.8276H170.92L172.497 17.9874H174.919L175.036 17.5652C175.61 15.2607 176.455 13.76 177.569 12.6459C179.105 11.1095 181.181 10.4584 183.948 10.4584C185.754 10.4584 187.214 10.6873 188.598 11.1095L187.255 16.2578C186.487 15.9526 185.525 15.7949 184.798 15.7949C183.297 15.7949 182.529 16.3697 182.183 17.7178L182.066 18.1044H186.751L185.215 23.8276H180.642L176.648 38.7738H169.389L173.377 23.8276Z" fill="white"/>
<path d="M164.729 19.8239C164.286 19.8443 163.839 19.8595 163.396 19.8595C161.57 19.8748 159.728 20.587 158.461 21.9199C157.978 22.4082 157.607 22.978 157.327 23.5986C157.347 23.5986 157.368 23.5935 157.393 23.5935C159.581 23.5935 161.041 25.0129 161.041 27.4344C161.041 28.9707 160.425 30.736 159.235 31.8501C158.426 32.6589 157.352 33.1931 156.162 33.1931C154.01 33.1931 152.55 31.7738 152.55 29.3116C152.55 27.7752 153.166 26.0863 154.356 24.8959C154.381 24.8704 154.407 24.8501 154.427 24.8297C153.456 22.9831 152.367 21.2026 151.121 19.5289C150.413 19.9969 149.762 20.5361 149.167 21.1313C146.863 23.4002 145.555 26.3966 145.555 29.5812C145.555 35.0754 149.396 39.2621 155.775 39.2621C159.194 39.2621 162.231 37.8428 164.419 35.6502C166.687 33.3457 167.99 30.385 167.99 27.1597C168 24.1888 166.83 21.5739 164.729 19.8239Z" fill="white"/>
<path d="M186.823 34.2767C186.823 33.3916 186.975 32.5878 187.245 31.55L189.28 23.8276H186.823L188.4 17.9875H190.857L192.276 12.7222H199.576L198.157 17.9875H203L201.423 23.8276H196.58L194.815 30.3952C194.698 30.97 194.621 31.3923 194.621 31.6619C194.621 32.5471 195.161 32.9693 196.275 32.9693C197.043 32.9693 197.964 32.776 199.042 32.3945L197.429 38.4279C196.086 38.9264 194.662 39.1961 193.126 39.1961C188.858 39.191 186.823 37.3494 186.823 34.2767Z" fill="white"/>
<path d="M112.829 0.88427C112.89 0.813049 113.018 0.66552 113.084 0.594299C113.638 1.22511 114.127 1.92206 114.783 2.45622C116.665 4.08412 119.178 4.70985 121.595 4.97438C125.135 5.35084 128.707 5.19313 132.262 5.38136C136.378 5.54924 140.509 6.10374 144.431 7.41116C148.475 8.72874 152.245 10.8298 155.562 13.4751C156.03 13.8719 156.691 14.1771 157.302 13.9228C157.724 13.7651 157.943 13.2614 157.754 12.8443C157.551 11.9795 156.635 11.6793 156.076 11.1045C156.513 10.667 157.169 10.8145 157.714 10.8857C159.494 11.2825 161.02 12.3407 162.536 13.3021C164.49 14.6146 166.469 15.8966 168.565 16.9751C168.361 17.555 167.873 18.1299 167.212 18.1299C165.767 18.1757 164.322 18.308 162.872 18.3181C161.204 18.3334 159.52 18.9846 158.36 20.2004C157.271 21.2992 156.752 22.8763 156.808 24.4024C156.808 24.6415 156.839 24.8857 156.808 25.1248C156.64 25.5369 155.964 25.5674 155.806 25.135C154.473 22.2709 152.901 19.5034 150.902 17.0463C148.765 14.4061 146.1 12.1677 143.042 10.6721C139.649 8.9831 135.864 8.24546 132.11 7.90462C128.584 7.54342 125.013 7.54851 121.523 6.86683C119 6.37845 116.487 5.36101 114.671 3.47875C113.954 2.71058 113.252 1.8661 112.829 0.88427Z" fill="white"/>
</svg>
